<svg width="234" height="16" viewBox="0 0 234 16" fill="none" xmlns="http://www.w3.org/2000/svg">
<path d="M233.707 8.70711C234.098 8.31658 234.098 7.68342 233.707 7.29289L227.343 0.928932C226.953 0.538408 226.319 0.538408 225.929 0.928932C225.538 1.31946 225.538 1.95262 225.929 2.34315L231.586 8L225.929 13.6569C225.538 14.0474 225.538 14.6805 225.929 15.0711C226.319 15.4616 226.953 15.4616 227.343 15.0711L233.707 8.70711ZM-4.57574e-10 9L3.06579 9L3.06579 7L4.57574e-10 7L-4.57574e-10 9ZM9.19737 9L15.3289 9L15.3289 7L9.19737 7L9.19737 9ZM21.4605 9L27.5921 9L27.5921 7L21.4605 7L21.4605 9ZM33.7237 9L39.8553 9L39.8553 7L33.7237 7L33.7237 9ZM45.9868 9L52.1184 9L52.1184 7L45.9868 7L45.9868 9ZM58.25 9L64.3816 9L64.3816 7L58.25 7L58.25 9ZM70.5132 9L76.6447 9L76.6447 7L70.5132 7L70.5132 9ZM82.7763 9L88.9079 9L88.9079 7L82.7763 7L82.7763 9ZM95.0395 9L101.171 9L101.171 7L95.0395 7L95.0395 9ZM107.303 9L113.434 9L113.434 7L107.303 7L107.303 9ZM119.566 9L125.697 9L125.697 7L119.566 7L119.566 9ZM131.829 9L137.961 9L137.961 7L131.829 7L131.829 9ZM144.092 9L150.224 9L150.224 7L144.092 7L144.092 9ZM156.355 9L162.487 9L162.487 7L156.355 7L156.355 9ZM168.618 9L174.75 9L174.75 7L168.618 7L168.618 9ZM180.882 9L187.013 9L187.013 7L180.882 7L180.882 9ZM193.145 9L199.276 9L199.276 7L193.145 7L193.145 9ZM205.408 9L211.539 9L211.539 7L205.408 7L205.408 9ZM217.671 9L223.803 9L223.803 7L217.671 7L217.671 9ZM229.934 9L233 9L233 7L229.934 7L229.934 9Z" fill="black" style="fill:black;fill-opacity:1;"/>
</svg>
